<?xml version="1.0" encoding="UTF-8"?>
<svg id="_圖層_2" data-name="圖層 2" xmlns="http://www.w3.org/2000/svg" viewBox="0 0 644.53 328.74">
  <defs>
    <style>
      .cls-1 {
        fill: #83a06f;
      }

      .cls-2 {
        fill: #54adae;
      }

      .cls-3 {
        fill: #a3b3aa;
      }
    </style>
  </defs>
  <g id="_圖層_1-2" data-name="圖層 1">
    <g>
      <g>
        <path class="cls-2" d="M73.92,309.38c.37-1.23.95-2.35,1.74-3.36.85-.95,1.86-1.66,3.04-2.12,1.04-.33,2.11-.51,3.23-.53.81.02,1.61.11,2.41.29.88.23,1.71.59,2.48,1.08,1.32.93,2.25,2.16,2.78,3.67l-2.06.37c-.41-1.02-1.06-1.86-1.96-2.51-1.11-.72-2.33-1.07-3.65-1.06-.99,0-1.93.2-2.83.61-.85.41-1.55.99-2.11,1.74-.62.9-1.04,1.88-1.27,2.93-.21.99-.31,1.98-.29,2.99,0,.97.1,1.91.29,2.83.25,1.07.68,2.07,1.3,2.99.56.79,1.27,1.42,2.11,1.88.88.44,1.81.66,2.8.66,1.22.04,2.35-.25,3.41-.85.53-.33,1-.75,1.4-1.24.4-.55.74-1.14,1-1.77l2.04.32c-.3.83-.7,1.6-1.19,2.3-.51.69-1.12,1.27-1.82,1.74-.76.49-1.59.85-2.49,1.06-.78.16-1.56.25-2.35.26-1.06-.02-2.07-.19-3.04-.53-1.18-.44-2.19-1.13-3.04-2.06-.85-.99-1.46-2.1-1.85-3.33-.42-1.37-.63-2.79-.61-4.26-.02-1.39.16-2.77.53-4.12Z"/>
        <path class="cls-2" d="M92.54,313.19c.3-.92.77-1.74,1.4-2.48.65-.72,1.44-1.25,2.35-1.59.79-.26,1.6-.41,2.43-.42.83.02,1.64.15,2.43.4.92.33,1.7.86,2.35,1.59.63.72,1.09,1.54,1.37,2.46.3,1,.46,2.02.48,3.04-.02,1.07-.18,2.12-.48,3.15-.3.92-.76,1.74-1.37,2.46-.67.69-1.46,1.19-2.38,1.51-.79.25-1.6.38-2.41.4-.83-.02-1.63-.15-2.41-.4-.92-.34-1.71-.85-2.38-1.53-.63-.74-1.1-1.57-1.4-2.48-.32-1-.47-2.04-.45-3.09,0-1.02.15-2.02.45-2.99ZM94.41,318.64c.21.69.55,1.31,1,1.88.46.53,1,.92,1.64,1.19.53.18,1.08.26,1.67.26s1.12-.09,1.66-.26c.63-.26,1.18-.65,1.64-1.16.44-.56.77-1.2.98-1.9.21-.79.33-1.61.34-2.46-.02-.83-.14-1.64-.37-2.43-.21-.69-.55-1.31-1-1.88-.46-.51-1-.89-1.64-1.14-.53-.18-1.07-.27-1.61-.29-1.31.02-2.39.49-3.25,1.43-.46.56-.8,1.19-1.03,1.88-.25.79-.36,1.6-.34,2.43-.02.85.09,1.66.32,2.46Z"/>
        <path class="cls-2" d="M110.33,309.07v2.09c.69-.78,1.49-1.4,2.41-1.88.76-.37,1.56-.56,2.41-.58.58.02,1.16.09,1.74.21.65.18,1.24.48,1.77.92.48.44.84.97,1.08,1.59.25.74.37,1.5.37,2.27v9.52h-2.01v-9.15c-.02-.42-.08-.84-.18-1.24-.12-.49-.34-.93-.66-1.32-.32-.35-.7-.63-1.14-.85-.49-.18-1-.27-1.53-.29-.72.02-1.41.18-2.06.5-.83.41-1.56.94-2.19,1.61v10.73h-1.98v-14.14h1.98Z"/>
        <path class="cls-2" d="M125,309.07v-2.62c-.02-.39.03-.77.16-1.14.16-.41.4-.76.71-1.06.33-.26.71-.47,1.14-.61.46-.11.93-.17,1.4-.18.74,0,1.45.13,2.14.4v1.74c-.49-.3-1.03-.45-1.61-.45-.53,0-1,.16-1.43.48-.37.35-.55.79-.53,1.32v2.12h3.67v1.66h-3.67v12.45h-1.98v-12.45h-2.78v-1.66h2.78Z"/>
        <path class="cls-2" d="M134.78,303.86v2.88h-2.01v-2.88h2.01ZM134.78,309.07v14.14h-2.01v-14.14h2.01Z"/>
        <path class="cls-2" d="M138.24,313.03c.26-.9.69-1.72,1.27-2.46.6-.67,1.32-1.17,2.17-1.51.72-.23,1.46-.35,2.22-.37.92,0,1.79.19,2.62.58.86.44,1.61,1.01,2.25,1.72v-7.11h2.01v19.33h-2.01v-1.59c-.7.65-1.5,1.16-2.38,1.53-.78.33-1.58.51-2.41.53-.78-.02-1.52-.15-2.25-.4-.86-.32-1.6-.82-2.19-1.51-.6-.72-1.03-1.54-1.3-2.46-.3-1.02-.44-2.07-.42-3.15-.02-1.06.12-2.11.42-3.15ZM146.49,321.47c.86-.35,1.62-.86,2.27-1.53v-7.19c-.63-.71-1.37-1.28-2.22-1.72-.72-.35-1.49-.54-2.3-.56-1.32.02-2.4.53-3.23,1.53-.42.56-.73,1.19-.93,1.88-.21.76-.31,1.52-.29,2.3,0,.78.1,1.53.29,2.27.18.71.48,1.35.9,1.93.83,1.04,1.91,1.56,3.25,1.56.78,0,1.52-.16,2.25-.48Z"/>
        <path class="cls-2" d="M154.21,313.24c.28-.92.73-1.74,1.35-2.48.63-.74,1.4-1.29,2.3-1.64.76-.26,1.54-.41,2.35-.42.79.02,1.57.15,2.33.4.86.32,1.61.82,2.25,1.51.6.69,1.05,1.47,1.35,2.35.28.92.43,1.86.45,2.83v1h-10.84c-.03.76.06,1.5.29,2.22.21.63.55,1.21,1,1.72.46.48,1.01.83,1.64,1.06.53.16,1.07.24,1.64.24.9.02,1.74-.19,2.54-.63.81-.48,1.43-1.13,1.85-1.96l1.82.34c-.55,1.27-1.39,2.26-2.54,2.96-1.15.65-2.37.97-3.67.95-.83-.02-1.63-.15-2.41-.4-.9-.32-1.68-.82-2.33-1.51-.63-.72-1.09-1.54-1.37-2.46-.32-1-.47-2.04-.45-3.09,0-1,.15-2,.45-2.99ZM164.57,315.2c-.02-1.32-.45-2.48-1.3-3.49-.83-.88-1.85-1.33-3.07-1.35-1.23.04-2.26.49-3.09,1.37-.88.99-1.34,2.14-1.38,3.46h8.83Z"/>
        <path class="cls-2" d="M171.58,309.07v2.09c.69-.78,1.49-1.4,2.41-1.88.76-.37,1.56-.56,2.41-.58.58.02,1.16.09,1.74.21.65.18,1.24.48,1.77.92.48.44.84.97,1.08,1.59.25.74.37,1.5.37,2.27v9.52h-2.01v-9.15c-.02-.42-.08-.84-.18-1.24-.12-.49-.34-.93-.66-1.32-.32-.35-.7-.63-1.14-.85-.49-.18-1-.27-1.53-.29-.72.02-1.41.18-2.06.5-.83.41-1.56.94-2.19,1.61v10.73h-1.98v-14.14h1.98Z"/>
        <path class="cls-2" d="M185.72,309.07v-3.7h1.96v3.7h3.01v1.66h-3.01v9.6c-.03.48.09.89.37,1.24.18.16.37.27.58.34.28.07.56.1.85.08.41,0,.8-.07,1.19-.21v1.61c-.71.19-1.42.29-2.14.29-.42-.02-.83-.08-1.22-.19-.35-.12-.66-.31-.93-.56-.48-.53-.7-1.16-.66-1.9v-10.31h-2.27v-1.66h2.27Z"/>
        <path class="cls-2" d="M195,303.86v2.88h-2.01v-2.88h2.01ZM195,309.07v14.14h-2.01v-14.14h2.01Z"/>
        <path class="cls-2" d="M198.52,318.16c.23-.39.49-.74.79-1.06.35-.33.74-.63,1.16-.87,1.02-.56,2.1-1,3.23-1.3,1.41-.35,2.85-.63,4.31-.82v-.93c0-.83-.32-1.52-.95-2.06-.39-.28-.82-.48-1.3-.61-.46-.09-.93-.14-1.4-.16-.88-.02-1.7.19-2.46.63-.72.48-1.23,1.12-1.51,1.93l-1.88-.26c.42-1.29,1.2-2.29,2.33-3.01,1.11-.63,2.31-.95,3.6-.95.67.02,1.34.09,2.01.21.72.16,1.38.45,1.98.87.51.39.91.87,1.19,1.45.25.62.38,1.25.4,1.9v8.14c-.02.18,0,.34.05.5.05.14.15.26.29.34.16.07.33.1.5.08.25,0,.49-.03.74-.08v1.3c-.55.16-1.09.25-1.64.26-.42-.02-.81-.14-1.16-.37-.32-.21-.52-.49-.61-.85-.07-.41-.1-.82-.1-1.24-.78.78-1.66,1.38-2.64,1.82-.95.4-1.93.62-2.93.63-.6-.02-1.19-.11-1.77-.26-.53-.14-1.02-.39-1.48-.74-.79-.63-1.19-1.48-1.19-2.54,0-.69.15-1.35.45-1.98ZM200.29,320.88c.16.28.37.51.63.69.6.35,1.26.51,1.98.48.92,0,1.8-.19,2.64-.58.9-.46,1.71-1.05,2.43-1.77,0-1.3,0-2.61.03-3.91-1.09.16-2.17.35-3.23.58-.92.21-1.8.5-2.64.87-.33.18-.65.38-.95.61-.26.21-.5.45-.71.71-.26.42-.4.88-.4,1.38-.02.33.05.65.21.95Z"/>
        <path class="cls-2" d="M215.91,303.86v19.35h-2.01v-19.35h2.01Z"/>
        <path class="cls-2" d="M234.07,303.86h2.17l7.67,19.35h-2.14l-2.14-5.5h-9.01l-2.17,5.5h-2.14l7.77-19.35ZM231.35,315.86h7.53l-3.7-9.54h-.05l-3.78,9.54Z"/>
        <path class="cls-2" d="M247.9,309.07v2.09c.69-.78,1.49-1.4,2.41-1.88.76-.37,1.56-.56,2.41-.58.58.02,1.16.09,1.74.21.65.18,1.24.48,1.77.92.48.44.84.97,1.08,1.59.25.74.37,1.5.37,2.27v9.52h-2.01v-9.15c-.02-.42-.08-.84-.18-1.24-.12-.49-.34-.93-.66-1.32-.32-.35-.7-.63-1.14-.85-.49-.18-1-.27-1.53-.29-.72.02-1.41.18-2.06.5-.83.41-1.56.94-2.19,1.61v10.73h-1.98v-14.14h1.98Z"/>
        <path class="cls-2" d="M261.23,318.16c.23-.39.49-.74.79-1.06.35-.33.74-.63,1.16-.87,1.02-.56,2.1-1,3.23-1.3,1.41-.35,2.85-.63,4.31-.82v-.93c0-.83-.32-1.52-.95-2.06-.39-.28-.82-.48-1.3-.61-.46-.09-.93-.14-1.4-.16-.88-.02-1.7.19-2.46.63-.72.48-1.23,1.12-1.51,1.93l-1.88-.26c.42-1.29,1.2-2.29,2.33-3.01,1.11-.63,2.31-.95,3.6-.95.67.02,1.34.09,2.01.21.72.16,1.38.45,1.98.87.51.39.91.87,1.19,1.45.25.62.38,1.25.4,1.9v8.14c-.02.18,0,.34.05.5.05.14.15.26.29.34.16.07.33.1.5.08.25,0,.49-.03.74-.08v1.3c-.55.16-1.09.25-1.64.26-.42-.02-.81-.14-1.16-.37-.32-.21-.52-.49-.61-.85-.07-.41-.1-.82-.1-1.24-.78.78-1.66,1.38-2.64,1.82-.95.4-1.93.62-2.93.63-.6-.02-1.19-.11-1.77-.26-.53-.14-1.02-.39-1.48-.74-.79-.63-1.19-1.48-1.19-2.54,0-.69.15-1.35.45-1.98ZM263,320.88c.16.28.37.51.63.69.6.35,1.26.51,1.98.48.92,0,1.8-.19,2.64-.58.9-.46,1.71-1.05,2.43-1.77,0-1.3,0-2.61.03-3.91-1.09.16-2.17.35-3.23.58-.92.21-1.8.5-2.64.87-.33.18-.65.38-.95.61-.26.21-.5.45-.71.71-.26.42-.4.88-.4,1.38-.02.33.05.65.21.95Z"/>
        <path class="cls-2" d="M278.62,303.86v19.35h-2.01v-19.35h2.01Z"/>
        <path class="cls-2" d="M282.74,309.07l4.55,11.45,4.44-11.45h2.14l-6.95,17.61c-.23.58-.59,1.07-1.08,1.48-.55.41-1.16.6-1.85.58-.53,0-1.04-.04-1.53-.13v-1.74c.32.07.65.11,1,.11.4,0,.78-.11,1.11-.32.33-.23.57-.53.71-.9l1.06-2.75-5.74-13.93h2.14Z"/>
        <path class="cls-2" d="M297.07,319.61c.3.83.81,1.47,1.53,1.93.76.41,1.58.59,2.46.56.79.02,1.53-.19,2.19-.61.32-.23.58-.5.79-.82.18-.32.27-.66.29-1.03-.03-.6-.29-1.08-.77-1.45-.37-.28-.77-.52-1.19-.71-.62-.28-1.25-.55-1.9-.79-.76-.25-1.5-.54-2.22-.87-.56-.26-1.08-.59-1.56-.98-.7-.62-1.07-1.39-1.08-2.33,0-.55.13-1.07.4-1.56.32-.51.71-.93,1.19-1.27.58-.35,1.21-.61,1.88-.77.6-.12,1.21-.19,1.82-.21,1.09-.02,2.12.23,3.09.74.99.6,1.71,1.43,2.17,2.48l-1.93.37c-.32-.65-.79-1.16-1.43-1.53-.6-.32-1.23-.48-1.9-.48-.85-.02-1.61.19-2.3.63-.62.41-.93.97-.95,1.69,0,.3.08.56.24.79.19.26.42.48.69.66.4.26.82.49,1.24.66.53.21,1.06.41,1.59.58.74.23,1.46.49,2.17.79.58.26,1.13.59,1.64.98.81.65,1.23,1.49,1.24,2.51-.03,1.16-.48,2.11-1.35,2.83-.55.42-1.15.73-1.8.92-.76.21-1.53.33-2.3.34-1.32.02-2.56-.31-3.7-.98-1-.63-1.71-1.52-2.11-2.67l1.88-.42Z"/>
        <path class="cls-2" d="M311.43,303.86v2.88h-2.01v-2.88h2.01ZM311.43,309.07v14.14h-2.01v-14.14h2.01Z"/>
        <path class="cls-2" d="M316.19,319.61c.3.83.81,1.47,1.53,1.93.76.41,1.58.59,2.46.56.79.02,1.53-.19,2.19-.61.32-.23.58-.5.79-.82.18-.32.27-.66.29-1.03-.03-.6-.29-1.08-.77-1.45-.37-.28-.77-.52-1.19-.71-.62-.28-1.25-.55-1.9-.79-.76-.25-1.5-.54-2.22-.87-.56-.26-1.08-.59-1.56-.98-.7-.62-1.07-1.39-1.08-2.33,0-.55.13-1.07.4-1.56.32-.51.71-.93,1.19-1.27.58-.35,1.21-.61,1.88-.77.6-.12,1.21-.19,1.82-.21,1.09-.02,2.12.23,3.09.74.99.6,1.71,1.43,2.17,2.48l-1.93.37c-.32-.65-.79-1.16-1.43-1.53-.6-.32-1.23-.48-1.9-.48-.85-.02-1.61.19-2.3.63-.62.41-.93.97-.95,1.69,0,.3.08.56.24.79.19.26.42.48.69.66.4.26.82.49,1.24.66.53.21,1.06.41,1.59.58.74.23,1.46.49,2.17.79.58.26,1.13.59,1.64.98.81.65,1.23,1.49,1.24,2.51-.03,1.16-.48,2.11-1.35,2.83-.55.42-1.15.73-1.8.92-.76.21-1.53.33-2.3.34-1.32.02-2.56-.31-3.7-.98-1-.63-1.71-1.52-2.11-2.67l1.88-.42Z"/>
        <path class="cls-2" d="M344.45,303.86c.83.02,1.65.11,2.46.29.86.19,1.65.56,2.35,1.11.58.49,1.02,1.1,1.32,1.82.28.78.43,1.58.45,2.41-.02.88-.18,1.74-.48,2.56-.3.72-.76,1.35-1.37,1.88-.71.53-1.49.9-2.35,1.11-.79.18-1.59.26-2.38.24h-5v7.93h-2.04v-19.35h7.03ZM339.45,313.45h4.65c.58,0,1.16-.05,1.74-.16.62-.14,1.19-.39,1.72-.74.46-.33.81-.76,1.06-1.27.23-.56.35-1.16.37-1.8-.02-.44-.09-.88-.21-1.32-.19-.51-.49-.95-.9-1.32-.46-.39-.97-.67-1.53-.85-.72-.19-1.45-.29-2.17-.29h-4.73v7.75Z"/>
        <path class="cls-2" d="M355.97,309.07v2.96c.65-.93,1.46-1.71,2.43-2.33.49-.3,1.01-.55,1.56-.74.37-.11.76-.18,1.16-.21v1.69c-.44.02-.86.1-1.27.24-.49.18-.97.41-1.43.69-.99.62-1.81,1.39-2.46,2.33v9.54h-1.96v-14.17h1.96Z"/>
        <path class="cls-2" d="M365.17,303.86v2.88h-2.01v-2.88h2.01ZM365.17,309.07v14.14h-2.01v-14.14h2.01Z"/>
        <path class="cls-2" d="M369.32,309.07l4.47,12.19h.05l4.44-12.19h2.17l-5.42,14.14h-2.43l-5.45-14.14h2.17Z"/>
        <path class="cls-2" d="M382.41,318.16c.23-.39.49-.74.79-1.06.35-.33.74-.63,1.16-.87,1.02-.56,2.1-1,3.23-1.3,1.41-.35,2.85-.63,4.31-.82v-.93c0-.83-.32-1.52-.95-2.06-.39-.28-.82-.48-1.3-.61-.46-.09-.93-.14-1.4-.16-.88-.02-1.7.19-2.46.63-.72.48-1.23,1.12-1.51,1.93l-1.88-.26c.42-1.29,1.2-2.29,2.33-3.01,1.11-.63,2.31-.95,3.6-.95.67.02,1.34.09,2.01.21.72.16,1.38.45,1.98.87.51.39.91.87,1.19,1.45.25.62.38,1.25.4,1.9v8.14c-.02.18,0,.34.05.5.05.14.15.26.29.34.16.07.33.1.5.08.25,0,.49-.03.74-.08v1.3c-.55.16-1.09.25-1.64.26-.42-.02-.81-.14-1.16-.37-.32-.21-.52-.49-.61-.85-.07-.41-.1-.82-.1-1.24-.78.78-1.66,1.38-2.64,1.82-.95.4-1.93.62-2.93.63-.6-.02-1.19-.11-1.77-.26-.53-.14-1.02-.39-1.48-.74-.79-.63-1.19-1.48-1.19-2.54,0-.69.15-1.35.45-1.98ZM384.18,320.88c.16.28.37.51.63.69.6.35,1.26.51,1.98.48.92,0,1.8-.19,2.64-.58.9-.46,1.71-1.05,2.43-1.77,0-1.3,0-2.61.03-3.91-1.09.16-2.17.35-3.23.58-.92.21-1.8.5-2.64.87-.33.18-.65.38-.95.61-.26.21-.5.45-.71.71-.26.42-.4.88-.4,1.38-.02.33.05.65.21.95Z"/>
        <path class="cls-2" d="M397.66,313.08c.3-.92.78-1.74,1.43-2.46.67-.7,1.46-1.22,2.38-1.53.78-.25,1.57-.38,2.38-.4,1.34-.02,2.57.34,3.7,1.08,1.01.72,1.71,1.67,2.11,2.85l-2.01.29c-.3-.71-.76-1.29-1.38-1.74-.74-.49-1.55-.74-2.43-.74-.56.02-1.11.11-1.64.29-.63.25-1.19.63-1.67,1.14-.46.56-.79,1.19-1,1.88-.25.81-.36,1.63-.34,2.46-.02.85.09,1.67.32,2.46.21.69.54,1.31.98,1.88.85.97,1.92,1.45,3.23,1.43.93.02,1.79-.24,2.56-.77.67-.51,1.17-1.17,1.51-1.98l1.93.32c-.42,1.25-1.16,2.26-2.22,3.01-1.15.78-2.41,1.15-3.78,1.14-.79-.02-1.56-.15-2.3-.4-.9-.34-1.68-.85-2.33-1.53-.63-.72-1.11-1.54-1.43-2.46-.32-1-.48-2.04-.48-3.09-.02-1.06.14-2.1.48-3.12Z"/>
        <path class="cls-2" d="M413.15,309.07l4.55,11.45,4.44-11.45h2.14l-6.95,17.61c-.23.58-.59,1.07-1.08,1.48-.55.41-1.16.6-1.85.58-.53,0-1.04-.04-1.53-.13v-1.74c.32.07.65.11,1,.11.4,0,.78-.11,1.11-.32.33-.23.57-.53.71-.9l1.06-2.75-5.74-13.93h2.14Z"/>
        <path class="cls-2" d="M448.82,303.86v1.85h-11.58v6.5h10.55v1.85h-10.55v7.35h11.79v1.8h-13.83v-19.35h13.61Z"/>
        <path class="cls-2" d="M454.21,309.07v2.09c.69-.78,1.49-1.4,2.41-1.88.76-.37,1.56-.56,2.41-.58.58.02,1.16.09,1.74.21.65.18,1.24.48,1.77.92.48.44.84.97,1.08,1.59.25.74.37,1.5.37,2.27v9.52h-2.01v-9.15c-.02-.42-.08-.84-.18-1.24-.12-.49-.34-.93-.66-1.32-.32-.35-.7-.63-1.14-.85-.49-.18-1-.27-1.53-.29-.72.02-1.41.18-2.06.5-.83.41-1.56.94-2.19,1.61v10.73h-1.98v-14.14h1.98Z"/>
        <path class="cls-2" d="M469.62,303.86v7.3c.69-.78,1.49-1.4,2.41-1.88.76-.37,1.56-.56,2.41-.58.74.02,1.47.14,2.19.37.62.25,1.15.61,1.59,1.08.44.53.75,1.13.92,1.8.14.58.22,1.16.24,1.74v9.52h-1.98v-9.15c-.02-.42-.08-.84-.18-1.24-.12-.49-.34-.93-.66-1.32-.32-.35-.7-.63-1.14-.85-.49-.18-1-.27-1.53-.29-.74.02-1.44.18-2.09.5-.83.41-1.55.94-2.17,1.61v10.73h-2.01v-19.35h2.01Z"/>
        <path class="cls-2" d="M482.92,318.16c.23-.39.49-.74.79-1.06.35-.33.74-.63,1.16-.87,1.02-.56,2.1-1,3.23-1.3,1.41-.35,2.85-.63,4.31-.82v-.93c0-.83-.32-1.52-.95-2.06-.39-.28-.82-.48-1.3-.61-.46-.09-.93-.14-1.4-.16-.88-.02-1.7.19-2.46.63-.72.48-1.23,1.12-1.51,1.93l-1.88-.26c.42-1.29,1.2-2.29,2.33-3.01,1.11-.63,2.31-.95,3.6-.95.67.02,1.34.09,2.01.21.72.16,1.38.45,1.98.87.51.39.91.87,1.19,1.45.25.62.38,1.25.4,1.9v8.14c-.02.18,0,.34.05.5.05.14.15.26.29.34.16.07.33.1.5.08.25,0,.49-.03.74-.08v1.3c-.55.16-1.09.25-1.64.26-.42-.02-.81-.14-1.16-.37-.32-.21-.52-.49-.61-.85-.07-.41-.1-.82-.1-1.24-.78.78-1.66,1.38-2.64,1.82-.95.4-1.93.62-2.93.63-.6-.02-1.19-.11-1.77-.26-.53-.14-1.02-.39-1.48-.74-.79-.63-1.19-1.48-1.19-2.54,0-.69.15-1.35.45-1.98ZM484.69,320.88c.16.28.37.51.63.69.6.35,1.26.51,1.98.48.92,0,1.8-.19,2.64-.58.9-.46,1.71-1.05,2.43-1.77,0-1.3,0-2.61.03-3.91-1.09.16-2.17.35-3.23.58-.92.21-1.8.5-2.64.87-.33.18-.65.38-.95.61-.26.21-.5.45-.71.71-.26.42-.4.88-.4,1.38-.02.33.05.65.21.95Z"/>
        <path class="cls-2" d="M500.29,309.07v2.09c.69-.78,1.49-1.4,2.41-1.88.76-.37,1.56-.56,2.41-.58.58.02,1.16.09,1.74.21.65.18,1.24.48,1.77.92.48.44.84.97,1.08,1.59.25.74.37,1.5.37,2.27v9.52h-2.01v-9.15c-.02-.42-.08-.84-.18-1.24-.12-.49-.34-.93-.66-1.32-.32-.35-.7-.63-1.14-.85-.49-.18-1-.27-1.53-.29-.72.02-1.41.18-2.06.5-.83.41-1.56.94-2.19,1.61v10.73h-1.98v-14.14h1.98Z"/>
        <path class="cls-2" d="M513.56,313.08c.3-.92.78-1.74,1.43-2.46.67-.7,1.46-1.22,2.38-1.53.78-.25,1.57-.38,2.38-.4,1.34-.02,2.57.34,3.7,1.08,1.01.72,1.71,1.67,2.11,2.85l-2.01.29c-.3-.71-.76-1.29-1.38-1.74-.74-.49-1.55-.74-2.43-.74-.56.02-1.11.11-1.64.29-.63.25-1.19.63-1.67,1.14-.46.56-.79,1.19-1,1.88-.25.81-.36,1.63-.34,2.46-.02.85.09,1.67.32,2.46.21.69.54,1.31.98,1.88.85.97,1.92,1.45,3.23,1.43.93.02,1.79-.24,2.56-.77.67-.51,1.17-1.17,1.51-1.98l1.93.32c-.42,1.25-1.16,2.26-2.22,3.01-1.15.78-2.41,1.15-3.78,1.14-.79-.02-1.56-.15-2.3-.4-.9-.34-1.68-.85-2.33-1.53-.63-.72-1.11-1.54-1.43-2.46-.32-1-.48-2.04-.48-3.09-.02-1.06.14-2.1.48-3.12Z"/>
        <path class="cls-2" d="M528.42,313.24c.28-.92.73-1.74,1.35-2.48.63-.74,1.4-1.29,2.3-1.64.76-.26,1.54-.41,2.35-.42.79.02,1.57.15,2.33.4.86.32,1.61.82,2.25,1.51.6.69,1.05,1.47,1.35,2.35.28.92.43,1.86.45,2.83v1h-10.84c-.03.76.06,1.5.29,2.22.21.63.55,1.21,1,1.72.46.48,1.01.83,1.64,1.06.53.16,1.07.24,1.64.24.9.02,1.74-.19,2.54-.63.81-.48,1.43-1.13,1.85-1.96l1.82.34c-.55,1.27-1.39,2.26-2.54,2.96-1.15.65-2.37.97-3.67.95-.83-.02-1.63-.15-2.41-.4-.9-.32-1.68-.82-2.33-1.51-.63-.72-1.09-1.54-1.37-2.46-.32-1-.47-2.04-.45-3.09,0-1,.15-2,.45-2.99ZM538.78,315.2c-.02-1.32-.45-2.48-1.3-3.49-.83-.88-1.85-1.33-3.07-1.35-1.23.04-2.26.49-3.09,1.37-.88.99-1.34,2.14-1.38,3.46h8.83Z"/>
        <path class="cls-2" d="M545.76,309.07v2.06c.63-.76,1.39-1.37,2.27-1.82.76-.37,1.56-.57,2.41-.61.92-.02,1.76.2,2.54.66.76.51,1.32,1.18,1.69,2.01h.03c.71-.83,1.53-1.5,2.49-2.01.76-.41,1.57-.63,2.43-.66.69.02,1.37.14,2.04.37.56.25,1.06.61,1.48,1.08.39.51.67,1.09.85,1.74.12.56.2,1.13.21,1.69v9.62h-1.98v-9.36c-.02-.51-.1-1.01-.26-1.51-.18-.42-.42-.8-.74-1.14-.63-.56-1.38-.85-2.22-.85-.72.05-1.37.27-1.96.66-.76.48-1.43,1.05-2.01,1.72v10.47h-2.01v-9.28c.02-.93-.26-1.77-.82-2.51-.62-.69-1.38-1.04-2.3-1.06-.74.04-1.43.25-2.06.63-.79.48-1.48,1.06-2.06,1.74v10.47h-1.96v-14.14h1.96Z"/>
        <path class="cls-2" d="M567.7,313.24c.28-.92.73-1.74,1.35-2.48.63-.74,1.4-1.29,2.3-1.64.76-.26,1.54-.41,2.35-.42.79.02,1.57.15,2.33.4.86.32,1.61.82,2.25,1.51.6.69,1.05,1.47,1.35,2.35.28.92.43,1.86.45,2.83v1h-10.84c-.03.76.06,1.5.29,2.22.21.63.55,1.21,1,1.72.46.48,1.01.83,1.64,1.06.53.16,1.07.24,1.64.24.9.02,1.74-.19,2.54-.63.81-.48,1.43-1.13,1.85-1.96l1.82.34c-.55,1.27-1.39,2.26-2.54,2.96-1.15.65-2.37.97-3.67.95-.83-.02-1.63-.15-2.41-.4-.9-.32-1.68-.82-2.33-1.51-.63-.72-1.09-1.54-1.37-2.46-.32-1-.47-2.04-.45-3.09,0-1,.15-2,.45-2.99ZM578.06,315.2c-.02-1.32-.45-2.48-1.3-3.49-.83-.88-1.85-1.33-3.07-1.35-1.23.04-2.26.49-3.09,1.37-.88.99-1.34,2.14-1.38,3.46h8.83Z"/>
        <path class="cls-2" d="M585.07,309.07v2.09c.69-.78,1.49-1.4,2.41-1.88.76-.37,1.56-.56,2.41-.58.58.02,1.16.09,1.74.21.65.18,1.24.48,1.77.92.48.44.84.97,1.08,1.59.25.74.37,1.5.37,2.27v9.52h-2.01v-9.15c-.02-.42-.08-.84-.18-1.24-.12-.49-.34-.93-.66-1.32-.32-.35-.7-.63-1.14-.85-.49-.18-1-.27-1.53-.29-.72.02-1.41.18-2.06.5-.83.41-1.56.94-2.19,1.61v10.73h-1.98v-14.14h1.98Z"/>
        <path class="cls-2" d="M599.21,309.07v-3.7h1.96v3.7h3.01v1.66h-3.01v9.6c-.03.48.09.89.37,1.24.18.16.37.27.58.34.28.07.56.1.85.08.41,0,.8-.07,1.19-.21v1.61c-.71.19-1.42.29-2.14.29-.42-.02-.83-.08-1.22-.19-.35-.12-.66-.31-.93-.56-.48-.53-.7-1.16-.66-1.9v-10.31h-2.27v-1.66h2.27Z"/>
      </g>
      <g>
        <path class="cls-2" d="M111.29,270.61l3.17,4.24h3.07v4.14h-5.31l2.88,2.19c-1.69,2.11-3.56,4-5.6,5.65.39.84.88,1.62,1.46,2.34.32.42.76.68,1.32.78.36-.07.62-.28.78-.63.29-.68.52-1.41.68-2.19.26-1.43.49-2.88.68-4.34l3.61,1.32c-.23,1.69-.49,3.36-.78,5.02-.2.75-.42,1.49-.68,2.24-.29.71-.67,1.4-1.12,2.05-.78.94-1.79,1.43-3.02,1.46-1.2-.03-2.26-.42-3.17-1.17-.68-.59-1.28-1.25-1.8-2-.55-.75-1.04-1.53-1.46-2.34-3.15,1.88-6.43,3.49-9.84,4.83l-1.95-4.09c3.48-1.1,6.81-2.57,9.99-4.39-.91-2.18-1.61-4.42-2.1-6.73h-6.77c-.03.13-.05.23-.05.29l6.38,4.78-2.49,3.31c-1.53-1.23-3.04-2.47-4.53-3.7-.49,1.88-1.2,3.69-2.14,5.41-1.17,2.08-2.55,4.03-4.14,5.85l-3.95-2.53c1.04-1.17,2.03-2.37,2.97-3.61.78-1.04,1.46-2.14,2.05-3.31.94-2.05,1.45-4.21,1.51-6.48h-3.95v-4l-.88.54c-.85-1.3-1.71-2.6-2.58-3.9v23.1h-4.53v-19.05c-1.14,2.92-2.49,5.73-4.05,8.43l-2.73-4.63c1.23-2.05,2.34-4.19,3.31-6.43,1.23-2.79,2.32-5.67,3.27-8.63h-4.78v-4.78h4.97v-8.19h4.53v8.19h3.51v4.78h-3.51v4.39l1.61-1.17c1.43,1.92,2.86,3.83,4.29,5.75l-2.24,1.46h3.8v-2.83h4.39v2.83h5.9c-.23-1.14-.39-2.29-.49-3.46l-2.73.83-.44-1.41c-2.02.2-4,.39-5.95.58-.94.13-1.85.28-2.73.44l-1.12-3.8c.65-.32,1.27-.76,1.85-1.32,1.07-1.1,2.03-2.32,2.88-3.66-.94.1-1.87.2-2.78.29-.46.07-.89.15-1.32.24l-1.07-3.61c.55-.1.99-.41,1.32-.93,1.49-2.31,2.81-4.73,3.95-7.26l3.31,1.27c-1.1,2.24-2.32,4.4-3.65,6.48.81.03,1.62.02,2.44-.05l1.95-3.51,3.02,1.51c-.1-2.18-.16-4.39-.19-6.63h4.43c0,4.39.15,8.76.44,13.11.23,3.67.67,7.29,1.32,10.87h4.29l-1.8-2.44,3.12-1.8ZM92.97,267.78c1.17-.06,2.34-.16,3.51-.29l-1.07-2.88c-.78,1.11-1.59,2.16-2.44,3.17ZM98.33,263.59l2.29,6.68c-.46-4.13-.76-8.28-.93-12.48-1.3,2.37-2.73,4.65-4.29,6.82l2.92-1.02ZM106.95,266.03c.81-1.07,1.57-2.21,2.29-3.41-.88.07-1.72.15-2.53.24l-1.37.34-1.12-3.51c.49-.23.91-.59,1.27-1.07,1.49-2.34,2.75-4.81,3.75-7.41l3.31,1.27c-1.07,2.4-2.32,4.69-3.75,6.87.78.03,1.58.02,2.39-.05.71-1.36,1.43-2.74,2.15-4.14l3.07,1.46c-1.72,3.77-3.8,7.29-6.24,10.58l3.27-.24c-.33-.91-.65-1.84-.98-2.78l2.92-1.02c.94,2.6,1.85,5.2,2.73,7.8l-3.07.93c-.2-.52-.36-1.06-.49-1.61-2.18.2-4.34.41-6.48.63-.65.1-1.27.21-1.85.34l-.98-3.8c.65-.32,1.22-.8,1.71-1.41ZM107.93,283.13c1.49-1.2,2.86-2.58,4.09-4.14h-5.36c.36,1.43.78,2.81,1.27,4.14Z"/>
        <path class="cls-2" d="M124.84,277.04h-2.68v-4.48h3.12l.63-6.29-.2.24-3.95-3.51c1.59-1.95,3.05-4,4.39-6.14,1.17-1.85,2.18-3.8,3.02-5.85l5.36,1.07c-.39.94-.8,1.87-1.22,2.78h13.45v4.73h-16.13c-.55.94-1.14,1.84-1.76,2.68h15.79c-.1,1.56-.16,3.12-.2,4.68,1.69-2.53,3.13-5.21,4.34-8.04,1.07-2.47,1.92-5.04,2.54-7.7l4.92.58c-.49,2.18-1.07,4.29-1.76,6.34h11.79v5.07h-2.63c-.36,3.7-1.01,7.34-1.95,10.92-.78,2.76-1.85,5.38-3.22,7.85,2.4,3.48,5.36,6.42,8.87,8.82l-3.22,4.29c-3.28-2.57-6.13-5.51-8.53-8.82-2.7,3.28-5.73,6.22-9.11,8.82l-3.12-4.24c2.01-1.4,3.9-2.94,5.65-4.63,1.4-1.36,2.66-2.84,3.8-4.43-1.98-3.87-3.33-7.96-4.05-12.28-.52.75-1.04,1.48-1.56,2.19l-2.88-3.41c-.07,1.46-.13,2.89-.2,4.29h3.27v4.48h-3.46l-.29,5.85h2.83v4.43h-3.02v.93c-.03,1.07-.21,2.13-.54,3.17-.2.55-.49,1.06-.88,1.51-.65.55-1.4.91-2.24,1.07-1.17.2-2.36.29-3.56.29h-4.73l-.98-4.44h5.85c.68.03,1.3-.11,1.85-.44.39-.42.59-.94.59-1.56v-.54h-15.06l1.02-10.28ZM133.42,277.04h-3.95l-.59,5.85h5.9l-3.56-3.56,2.19-2.29ZM134.15,266.66h-3.56l-.63,5.9h5.41c-1.2-1.23-2.39-2.49-3.56-3.75l2.34-2.14ZM135.17,282.89h3.9l.34-5.85h-5.6l3.61,3.51-2.24,2.34ZM135.66,272.56h3.95l.39-5.9h-5.41c1.17,1.14,2.32,2.31,3.46,3.51l-2.39,2.39ZM152.32,263.4c.23,2.57.65,5.1,1.27,7.6.52,2.01,1.2,3.96,2.05,5.85.81-1.85,1.46-3.78,1.95-5.8.62-2.57,1.09-5.18,1.41-7.85h-6.58l-.1.2Z"/>
        <path class="cls-2" d="M175.67,288.54c1.56-1.04,2.97-2.26,4.24-3.66.98-1.2,1.72-2.53,2.24-4,.52-1.59.88-3.22,1.07-4.87.07-.62.13-1.25.2-1.9h-6.34v-3.02c-1.17.97-2.36,1.9-3.56,2.78l-3.07-4.48c3.12-2.18,5.93-4.69,8.43-7.55,2.76-3.15,5.02-6.63,6.77-10.43l5.07,1.95c-2.66,5.98-6.38,11.16-11.16,15.55h26.17c-2.24-1.98-4.22-4.19-5.95-6.63-2.05-3.05-3.69-6.32-4.92-9.8l4.97-1.8c.78,2.11,1.72,4.14,2.83,6.09,1.07,1.82,2.31,3.51,3.7,5.07,1.1,1.2,2.27,2.32,3.51,3.36,1.88,1.49,3.87,2.86,5.95,4.09l-2.97,4.92c-2.01-1.27-3.95-2.65-5.8-4.14-.39,5.69-.81,11.34-1.27,16.96-.13,1.2-.42,2.34-.88,3.41-.33.65-.75,1.22-1.27,1.71-.81.65-1.71,1.09-2.68,1.32-1.33.26-2.68.39-4.04.39h-7.07l-1.02-5.17h6.48c.81.03,1.62-.02,2.44-.15.55-.1,1.06-.32,1.51-.68.26-.29.47-.62.63-.97.23-.65.37-1.33.44-2.05.29-3.54.6-7.12.93-10.72h-12.43l-.1,1.95c-.1,2.11-.42,4.17-.97,6.19-.59,1.85-1.45,3.56-2.58,5.12-1.01,1.27-2.15,2.42-3.41,3.46-2.18,1.75-4.48,3.33-6.92,4.73l-4.09-4.24c1.69-.88,3.33-1.8,4.92-2.78Z"/>
        <path class="cls-2" d="M222.99,272.56c1.27-2.53,2.37-5.13,3.31-7.8h-5.6v-5.07h5.85v-8.14h5.17v8.14h5.9v5.07h-5.9v3.66l1.32-1.17c2.08,2.5,4.11,5.02,6.09,7.55l-3.66,3.17c-1.27-1.62-2.52-3.25-3.75-4.87v21.54h-5.17v-19.15c-1.3,2.79-2.78,5.46-4.43,7.99l-3.51-3.66c1.69-2.27,3.15-4.69,4.39-7.26ZM236.93,287.37c.65-1.14,1.19-2.34,1.61-3.61.52-1.88.86-3.8,1.02-5.75.16-2.66.24-5.33.24-7.99v-14.91c6.98-.45,13.89-1.48,20.71-3.07l1.41,5.21c-5.59,1.27-11.23,2.16-16.91,2.68v7.55h18.52v5.31h-6.53v21.49h-5.26v-21.49h-6.73c-.03,2.53-.18,5.04-.44,7.5-.23,1.98-.63,3.93-1.22,5.85-.46,1.33-1.01,2.6-1.66,3.8-1.01,1.82-2.15,3.57-3.41,5.26l-4.92-2.83c1.33-1.59,2.52-3.27,3.56-5.02Z"/>
        <path class="cls-2" d="M289.12,251.6v4.19h8.04v4.29h-8.04v3.66h8.14v15.35h6.58l.15-4.29h-5.51v-4.48h5.7l.15-4.09h-5.85v-4.48h5.99l.2-4.05h-6.82v-4.63h11.99l-.98,26.02h3.51v4.68h-15.3c4.77,2.4,9.6,4.74,14.47,7.02l-2.39,4.48c-5-2.63-10.01-5.21-15.01-7.75l1.9-3.75h-11.6l2.29,3.61c-2.18,1.46-4.42,2.78-6.73,3.95-2.73,1.46-5.47,2.83-8.24,4.09l-2.24-4.58c4.87-1.88,9.54-4.24,13.99-7.07h-14.91v-4.68h3.26l-.68-24.81c3.67-.75,7.29-1.75,10.87-3.02l1.51,4.63c-2.34.98-4.73,1.72-7.16,2.24l.1,3.61h6.34v4.48h-6.19l.15,4.09h6.04v4.48h-5.9l.1,4.29h7.36v-9.45h4.53v9.45h3.75v-11.06h-8.38v-16.42h4.83Z"/>
        <path class="cls-2" d="M331.96,253.31v4.92l-3.02,9.8c1.01,1.82,1.84,3.72,2.48,5.7.59,1.88.89,3.8.93,5.75,0,1.2-.13,2.39-.39,3.56-.2.84-.59,1.58-1.17,2.19-.49.42-1.02.75-1.61.97-1.07.29-2.16.42-3.27.39h-1.51l-.83-4v11.84h-4.39v-41.13h12.77ZM323.58,281.67h1.51c.49.03.98.02,1.46-.05.36-.06.65-.23.88-.49.13-.26.23-.54.29-.83.1-.62.15-1.27.15-1.95-.07-1.56-.42-3.09-1.07-4.58-.68-1.66-1.53-3.25-2.53-4.78l3.12-11.01h-3.8v23.68ZM333.57,283.62l3.65,1.56c-1.23,2.89-2.73,5.62-4.48,8.19l-3.61-2.29c1.72-2.31,3.2-4.79,4.44-7.46ZM343.8,266.81v-1.95h-9.94v-2.83h3.07c-.78-1.14-1.51-2.29-2.19-3.46l2-1.02c-1.07.07-2.13.1-3.17.1l-.24-3.51c8.48-.29,16.94-.93,25.39-1.9l.59,3.46c-4.22.46-8.43.85-12.62,1.17.71,1.36,1.46,2.7,2.24,4l-2.68,1.17h4.29c1.33-1.82,2.62-3.7,3.85-5.65l3.56,1.66c-.85,1.4-1.74,2.73-2.68,4h3.41v2.83h-10.28v1.95h12.18v2.83h-28.36v-2.83h11.6ZM354.42,280.01v-1.66h-20.18v-2.68h20.18v-1.75h-20.27v-2.73h24.56v11.55h-11.79c.94,1.27,1.92,2.52,2.92,3.75l-3.31,2.34c-1.1-1.66-2.24-3.28-3.41-4.87l1.76-1.22h-11.11v-2.73h20.66ZM342.29,284.3v4.63c-.03.52.15.91.54,1.17.55.23,1.14.32,1.76.29h3.41c.62.03,1.2-.08,1.75-.34.42-.26.65-.67.68-1.22.06-.91.11-1.85.15-2.83l4.19.68c-.07,1.2-.13,2.39-.2,3.56-.07.68-.23,1.33-.49,1.95-.23.39-.5.71-.83.97-.52.39-1.12.67-1.8.83-.88.16-1.77.24-2.68.24h-5.9c-.75,0-1.49-.08-2.24-.24-.59-.16-1.1-.44-1.56-.83-.46-.42-.76-.94-.93-1.56-.16-.55-.23-1.1-.19-1.66v-5.65h4.34ZM345.55,256.96c-2.31.19-4.61.34-6.92.44.75,1.2,1.54,2.39,2.39,3.56l-2.1,1.07h6.09c-.75-1.27-1.45-2.57-2.1-3.9l2.63-1.17ZM357.45,283.08c1.62,2.44,3.18,4.91,4.68,7.41l-3.61,2.19c-1.37-2.57-2.83-5.08-4.39-7.55l3.31-2.05Z"/>
        <path class="cls-2" d="M374.16,263.69v-4.63c-2.27.39-4.55.7-6.82.93l-.54-4.97c6.24-.68,12.43-1.77,18.57-3.27l.93,5.02c-2.34.55-4.68,1.04-7.02,1.46v5.46h7.5v5.12h-7.5v3.17l1.22-1.27c2.31,2.18,4.56,4.4,6.77,6.68l-3.36,3.51-4.63-5.02v18.52h-5.12v-16.96c-1.82,3.48-3.96,6.69-6.43,9.65l-2.68-5.17c3.38-3.96,6.17-8.33,8.38-13.11h-6.87v-5.12h7.6ZM402.18,269.58c2.73,7.54,5.41,15.08,8.04,22.61l-5.17,1.61c-.36-1.27-.75-2.5-1.17-3.7-4.77.36-9.52.78-14.23,1.27-1.72.16-3.4.44-5.02.83l-1.8-5.02c.68-.2,1.27-.55,1.76-1.07.36-.65.62-1.32.78-2,.03-.16.08-.32.15-.49,1.72-5.23,3.28-10.51,4.68-15.84,1.43-5.43,2.71-10.88,3.85-16.37l5.36,1.07c-1.4,6.5-2.96,12.95-4.68,19.35-1.27,4.81-2.7,9.55-4.29,14.23,3.93-.26,7.86-.55,11.79-.88-1.56-4.65-3.17-9.29-4.83-13.94l4.78-1.66Z"/>
        <path class="cls-2" d="M419.53,289.32c.88.07,1.67-.11,2.39-.54.29-.26.5-.57.63-.93.16-.45.26-.93.29-1.41l.39-7.21h-8.09l1.12-15.16h7.75v-6.38h-8.24v-4.87h13.11v16.13h-7.99l-.44,5.46h7.85c-.1,4.55-.26,9.06-.49,13.55-.03,1.1-.21,2.14-.54,3.12-.23.59-.55,1.1-.97,1.56-.62.59-1.35.98-2.19,1.17-1.11.26-2.21.39-3.31.39h-4.48l-.93-4.87h4.14ZM441.17,268.76v-3.51l-5.31.24c-1.37.03-2.71.16-4.04.39l-.98-5.12c.84-.2,1.54-.63,2.1-1.32,2.63-2.99,5.07-6.16,7.31-9.5l4.48,2.73c-1.92,2.89-4.11,5.52-6.58,7.89l10.62-.44c-.94-1.1-1.85-2.24-2.73-3.41l3.75-3.07c2.86,3.28,5.64,6.61,8.33,9.99l-3.7,3.41-1.8-2.24-6.63.24v3.7h10.09v14.18h-1.76c1.56,3.35,3.05,6.73,4.48,10.14l-4.34,2.05c-.39-1.01-.8-2-1.22-2.97-7.93.36-15.82.83-23.68,1.41l-.44-5.21c1.07.03,2.16.02,3.26-.05,2.93-.13,5.85-.29,8.77-.49v-4.87h-10.23v-14.18h10.23ZM435.76,278.07h5.41v-4.39h-5.41v4.39ZM446,273.68v4.39h5.26v-4.39h-5.26ZM452.62,282.94h-6.63v4.63l5.26-.34-1.41-3.17,2.78-1.12Z"/>
        <path class="cls-2" d="M490.39,251.6v16.81c4.29-3.51,8.28-7.34,11.99-11.5l4.05,4c-4.97,5.36-10.32,10.25-16.03,14.67v9.8c-.03.52.02,1.01.15,1.46.1.29.23.54.39.73.26.26.57.44.93.54.52.1,1.04.13,1.56.1h5.12c.55.03,1.09,0,1.61-.1.29-.06.57-.18.83-.34.26-.2.46-.45.59-.78.13-.42.21-.88.24-1.37.1-2.47.18-4.97.24-7.5l5.21,1.22c-.1,2.76-.23,5.51-.39,8.24-.1,1.04-.31,2.01-.63,2.92-.33.75-.81,1.38-1.46,1.9-.55.36-1.15.63-1.8.83-1.14.26-2.29.39-3.46.39h-7.46c-1.2,0-2.39-.13-3.56-.39-.88-.26-1.63-.7-2.24-1.32-.42-.52-.75-1.11-.97-1.75-.29-1.14-.42-2.31-.39-3.51v-7.12c-2.31,1.59-4.66,3.07-7.07,4.43l-2.44-4.24v14.91h-5.51v-22.17c-1.49,2.08-3.07,4.06-4.73,5.95l-2.44-5.41c2.4-2.96,4.53-6.12,6.38-9.5,2.27-4.03,4.19-8.24,5.75-12.62l5.21,1.61c-1.33,3.77-2.89,7.42-4.68,10.97v15.4c3.25-1.88,6.42-3.95,9.5-6.19v-21.05h5.51Z"/>
        <path class="cls-2" d="M513.05,289.03c.55-1.36.96-2.78,1.22-4.24.23-1.49.39-2.99.49-4.48.16-2.96.24-5.93.24-8.92v-18.27h15.11v36.26c0,.81-.11,1.62-.34,2.44-.13.45-.36.86-.68,1.22-.49.45-1.06.76-1.71.93-.94.2-1.87.29-2.78.29h-4.19l-.98-4.78h3.66c.42.03.84.02,1.27-.05.23-.03.42-.11.59-.24.2-.16.32-.37.39-.63.07-.36.1-.73.1-1.12v-7.46h-5.9c-.2,2.76-.63,5.47-1.32,8.14-.65,2.4-1.54,4.74-2.68,7.02l-4.48-2.34c.75-1.23,1.41-2.48,2-3.75ZM519.73,264.32h5.7v-6.34h-5.7v6.34ZM519.73,275.38h5.7v-6.53h-5.7v6.53ZM553.75,253.06c-.13,2.86-.24,5.7-.34,8.53-.03.91-.2,1.79-.49,2.63-.16.46-.42.86-.78,1.22-.52.46-1.12.75-1.8.88-.94.2-1.9.28-2.88.24h-6.73l-.98-4.48h5.6c.75.07,1.49-.03,2.24-.29.49-.32.76-.81.83-1.46.06-.75.11-1.53.15-2.34h-11.5v10.82h17.2v4.48c-1.07,4.19-2.94,7.98-5.6,11.36,1.04,1.01,2.13,1.92,3.27,2.73,1.53,1.07,3.09,2.08,4.68,3.02l-3.07,4.29c-2.96-1.88-5.64-4.06-8.04-6.53-2.14,2.01-4.38,3.9-6.73,5.65l-1.71-1.95v2.78h-4.63v-41.57h21.3ZM541.86,273.39c.81,2.76,2.03,5.31,3.65,7.65,1.82-2.31,3.17-4.89,4.05-7.75h-12.48v15.4c1.88-1.3,3.67-2.75,5.36-4.34-2.02-2.92-3.59-6.09-4.73-9.5l4.14-1.46Z"/>
        <path class="cls-2" d="M566.56,289.96c.81.03,1.53-.16,2.15-.59.52-.65.76-1.4.73-2.24v-10.19c-1.07,2.08-2.24,4.09-3.51,6.04-1.07,1.59-2.23,3.09-3.46,4.48l-2.83-3.85c1.43-1.56,2.71-3.25,3.85-5.07,1.43-2.31,2.7-4.71,3.8-7.21h-6.43v-4.34h8.29c-1.88-1.95-3.72-3.96-5.51-6.04l3.22-2.34c1.2,1.2,2.39,2.4,3.56,3.61,1.23-1.4,2.52-2.79,3.85-4.19h-12.28v-4.48h17.59v5.12c-2.11,2.24-4.16,4.52-6.14,6.82.42.52.88,1.02,1.36,1.51h5.8v3.9c2.6-.91,5.1-2.08,7.51-3.51-1.33-1.3-2.52-2.73-3.56-4.29-1.04,1.33-2.13,2.58-3.27,3.75l-3.22-3.27c1.69-1.75,3.2-3.66,4.53-5.7,1.46-2.14,2.68-4.44,3.66-6.87l4.97.68c-.49,1.11-.99,2.19-1.51,3.27h12.96v4.34c-1.98,3.05-4.32,5.75-7.02,8.09,1.3.75,2.66,1.4,4.09,1.95,1.92.71,3.88,1.33,5.9,1.85l-2.1,4.53c-2.44-.71-4.79-1.59-7.07-2.63-1.69-.75-3.3-1.66-4.82-2.73-1.33.85-2.68,1.61-4.05,2.29h3.56c-.1,1.4-.2,2.76-.29,4.09h11.11l-.73,11.6c-.07,1.01-.26,1.97-.58,2.88-.23.55-.54,1.04-.93,1.46-.62.52-1.32.88-2.1,1.07-1.1.23-2.21.34-3.31.34h-4.77l-.98-4.39h4.24c.59.03,1.17-.02,1.76-.15.32-.06.62-.18.88-.34.32-.26.55-.57.68-.93.2-.45.32-.94.39-1.46.2-1.85.36-3.72.49-5.6h-6.73c-.71,3.05-2.14,5.72-4.29,7.99-.91.91-1.88,1.75-2.92,2.53-1.66,1.27-3.4,2.42-5.21,3.46l-3.17-4.19c1.53-.75,3.01-1.54,4.44-2.39,1.14-.71,2.19-1.53,3.17-2.44,1.43-1.4,2.44-3.05,3.02-4.97h-5.8v-4.48h6.53c.06-1.1.13-2.22.2-3.36-1.63.78-3.27,1.48-4.92,2.1l-1.32-2.39-1.9,5.99-3.7-1.02,2.19-6.73h-2.68v17.54c0,.91-.11,1.82-.34,2.73-.23.68-.6,1.27-1.12,1.75-.46.32-.96.57-1.51.73-1.01.23-2.01.34-3.02.34h-4.43l-.93-4.48h4ZM591.91,264.76c1.98-1.56,3.74-3.38,5.26-5.46h-9.75c1.2,2.08,2.7,3.9,4.48,5.46Z"/>
      </g>
    </g>
    <g>
      <path class="cls-2" d="M127.53,183.08c35.22-35.22,81.73-47.34,105.7-5.82V0l-52.85,91.54-52.85,91.54Z"/>
      <path class="cls-1" d="M242.07,55.89v177.26c23.97-41.52,88.09-29.4,123.31,5.82L242.07,55.89Z"/>
    </g>
    <g>
      <path class="cls-3" d="M131,215.08c0,3.02-1.41,4.43-4.43,4.43h-58.65c-22.37,0-39.3-6.25-50.79-18.94C5.64,187.87,0,169.53,0,145.75s5.64-42.53,16.93-55.22c11.29-12.9,28.22-19.35,50.99-19.35h58.65c3.02,0,4.43,1.41,4.43,4.43v23.38c0,3.02-1.41,4.43-4.43,4.43h-58.65c-9.07,0-16.12,3.23-21.57,9.67-5.44,6.65-8.06,16.73-8.06,30.63s2.42,24.59,7.46,32.25c4.84,7.46,12.29,11.29,22.17,11.29h58.65c3.02,0,4.43,1.41,4.43,4.43v23.38Z"/>
      <path class="cls-3" d="M440.17,175.58h-44.94v39.5c0,3.02-1.41,4.43-4.43,4.43h-27.41c-3.02,0-4.43-1.41-4.43-4.43V75.61c0-3.02,1.41-4.43,4.43-4.43h76.79c16.53,0,29.22,5.44,38.29,16.53,9.07,10.88,13.5,23.18,13.5,37.08s-4.43,25.8-13.1,35.87c-8.67,9.88-21.57,14.91-38.7,14.91ZM395.22,143.33h44.94c10.28,0,15.52-6.65,15.52-19.95s-5.24-19.95-15.52-19.95h-44.94v39.91Z"/>
      <path class="cls-3" d="M554.24,187.27h85.86c3.02,0,4.43,1.41,4.43,4.43v23.38c0,3.02-1.41,4.43-4.43,4.43h-117.7c-3.02,0-4.43-1.41-4.43-4.43V75.61c0-3.02,1.41-4.43,4.43-4.43h115.69c3.02,0,4.43,1.41,4.43,4.43v23.38c0,3.02-1.41,4.43-4.43,4.43h-83.84v25.8h77.8c3.02,0,4.43,1.41,4.43,4.43v23.38c0,3.02-1.41,4.43-4.43,4.43h-77.8v25.8Z"/>
    </g>
  </g>
</svg>